Simulation
nRows=31
nColumns=15
endheader
time  TH_x TH_y TH_z SC_y  SC_z  SC_x  AC_y  AC_z  AC_x  GH_y  GH_z  GH_yy  EL_x  PS_y
1.4  0.000000  0.000000  0.000000  -42.003001720706955  8.943159612142791  19.616827359874545  71.08821724480703  17.14581886919967  1.123684204205432  -29.132253610216818  63.535164815383  30.268728127163484  6.427005227670684  120.000000
1.428  0.000000  0.000000  0.000000  -42.199694637267484  9.127509199615025  19.678949849318066  71.20918583491346  17.353900361325014  1.5069526102141855  -29.182898256369793  63.80893312137414  30.313119510637726  6.391383814258815  120.000000
1.456  0.000000  0.000000  0.000000  -42.35623522888013  9.282153761034227  19.69899701815132  71.3058048653395  17.546074183504427  1.83519822679685  -29.227375553470154  64.0032236320175  30.348788005793892  6.380400792156999  120.000000
1.4839999999999998  0.000000  0.000000  0.000000  -42.474115653112335  9.405254293736276  19.67942193453806  71.37724537966656  17.719492982760563  2.103093091963127  -29.261429454770212  64.12454035820818  30.379472695711115  6.386556683969316  120.000000
1.5119999999999998  0.000000  0.000000  0.000000  -42.55504497413299  9.495521213147429  19.623888035141743  71.42405028588679  17.872295584806874  2.307619340973622  -29.282034535304838  64.18067464726053  30.40655031353233  6.402787531967647  120.000000
1.5399999999999998  0.000000  0.000000  0.000000  -42.6007589904048  9.552202796942401  19.537035529136887  71.44787007967864  18.003818179259603  2.4481538870765247  -29.287650414603227  64.18026999784887  30.428935658052573  6.423123508010902  120.000000
1.5679999999999998  0.000000  0.000000  0.000000  -42.6130938062805  9.575224336817639  19.42418220285372  71.45104315913183  18.114317615342244  2.5260503566518717  -29.277929755972526  64.13212124548569  30.44367660441979  6.4429994822613725  120.000000
1.5959999999999999  0.000000  0.000000  0.000000  -42.59418783107795  9.565230940294308  19.290954250082336  71.43605595429204  18.204606948210476  2.544102944086206  -29.253108642732638  64.04436144121082  30.447074339380098  6.459215240102048  120.000000
1.6239999999999999  0.000000  0.000000  0.000000  -42.54673805067068  9.523530227445143  19.142861591914343  71.40504892186418  18.275821886889243  2.505939074984748  -29.213320200605878  63.92355646679518  30.43579113157514  6.469877819956952  120.000000
1.652  0.000000  0.000000  0.000000  -42.4741083793312  9.452031579953202  18.984942920900846  71.35949089634788  18.329261662274828  2.415527908584995  -29.15813431529432  63.77395215356938  30.40769905570601  6.474322367378128  120.000000
1.6799999999999997  0.000000  0.000000  0.000000  -42.38026073569487  9.353047341548702  18.821507213669122  71.30006586858549  18.36642316135065  2.2769386216702565  -29.086379694453548  63.59708372111265  30.362234802450384  6.472991812974994  120.000000
1.7079999999999997  0.000000  0.000000  0.000000  -42.26945445805335  9.22916707014732  18.65595238945534  71.22702180453993  18.388943609047463  2.0941310619886955  -28.996501825559275  63.39180514348494  30.30011050259366  6.467260154061682  120.000000
1.7359999999999998  0.000000  0.000000  0.000000  -42.14564957867563  9.083143322076713  18.490827308774797  71.14056839693258  18.398241744988642  1.871070692328831  -28.887059969293507  63.154785198811375  30.22277665097059  6.459183048664719  120.000000
1.7639999999999998  0.000000  0.000000  0.000000  -42.01170929414783  8.917809984863746  18.32774925555966  71.04156564623709  18.395070657778664  1.611841601116411  -28.75737743144634  62.88128483949421  30.131652960105754  6.45113098314631  120.000000
1.7919999999999998  0.000000  0.000000  0.000000  -41.868786446159405  8.73618727480399  18.16715846620364  70.93179252197457  18.379030538810802  1.3210983309461615  -28.60792411460464  62.56608240891714  30.027690909378638  6.445477271882836  120.000000
1.8199999999999998  0.000000  0.000000  0.000000  -41.71609224949132  8.541524745155247  18.008257737258454  70.8142142700329  18.3482619579993  1.0040117487785534  -28.440656147399054  62.20404187459322  29.911142072836338  6.444316059307492  120.000000
1.8479999999999999  0.000000  0.000000  0.000000  -41.551287823130394  8.33723138856756  17.849187925652203  70.69257694609433  18.299406238239463  0.6662416363233737  -28.25883198985098  61.79037660021868  29.782022201168427  6.449347342456148  120.000000
1.876  0.000000  0.000000  0.000000  -41.37140522752573  8.126710207598741  17.687388805921895  70.5708661942099  18.22780475070756  0.3132168556660352  -28.066659442387834  61.32032524728603  29.64080174313916  6.461929673727299  120.000000
1.904  0.000000  0.000000  0.000000  -41.17384571147834  7.913158076679835  17.52014875613191  70.45214732263773  18.12794829754684  -0.05007401816206566  -27.868504588519833  60.788987163623524  29.48959464069709  6.483225587535289  120.000000
1.9319999999999997  0.000000  0.000000  0.000000  -40.95708621207383  7.6996158450827785  17.345206032941604  70.33796004139928  17.9943266482963  -0.41941336663079454  -27.667771410022798  60.19150130391891  29.332901440631645  6.514266564786038  120.000000
1.9599999999999997  0.000000  0.000000  0.000000  -40.72104280279757  7.48922113016248  17.16124660134943  70.22770760642553  17.82242002318059  -0.7912992964901705  -27.466005453169405  59.52356497203034  29.178240963917798  6.5562578924871  120.000000
1.9879999999999998  0.000000  0.000000  0.000000  -40.467258595962846  7.28509871373546  16.967705999592578  70.11867013379972  17.609247136360885  -1.1631049582970718  -27.26301653257798  58.78178822885347  29.03547253761918  6.610512842122357  120.000000
2.016  0.000000  0.000000  0.000000  -40.19854858050858  7.0900412150538505  16.763174773180758  70.00643743957693  17.354198203451723  -1.532563972891726  -27.058005067543647  57.96373523154481  28.9154810676396  6.678332216025889  120.000000
2.0439999999999996  0.000000  0.000000  0.000000  -39.91826668389118  6.906190102126298  16.543421461137847  69.88620610365763  17.05985034279482  -1.8968270420306839  -26.85034122944821  57.06807330983216  28.828115289528313  6.761221264900451  120.000000
2.0719999999999996  0.000000  0.000000  0.000000  -39.62948972975  6.734391652290599  16.302437457511328  69.75458279983543  16.730776787788596  -2.252350980088177  -26.64029325722219  56.09507816232317  28.780158673022118  6.860914071689297  120.000000
2.0999999999999996  0.000000  0.000000  0.000000  -39.33469828643389  6.573790332049522  16.035172663962936  69.6102949264936  16.371579003360196  -2.596064630678509  -26.430152293337304  55.04659883363179  28.773885838930905  6.979339398451045  120.000000
2.1279999999999997  0.000000  0.000000  0.000000  -39.03658940644094  6.421653657096502  15.738039674632503  69.45474413658444  15.986696104252912  -2.9261817309184335  -26.224984757473248  53.92603888531041  28.807159071768126  7.118162147026697  120.000000
2.1559999999999997  0.000000  0.000000  0.000000  -38.7383207526456  6.273444093037014  15.408844418998992  69.29172895033709  15.580575817077458  -3.2420063749844252  -26.031640888756588  52.73857034038641  28.875278219922162  7.278306233396467  120.000000
2.1839999999999997  0.000000  0.000000  0.000000  -38.44248504266643  6.123685229949794  15.04713985628178  69.12631840378302  15.156717101607901  -3.5436503988381687  -25.857039278032925  51.49122805644203  28.973362240186802  7.459686099573674  120.000000
2.2119999999999997  0.000000  0.000000  0.000000  -38.15004169946339  5.9671243804080065  14.653818405056333  68.96286554353887  14.717216125652895  -3.831308606616895  -25.706432126849574  50.19257842657239  29.099404847371275  7.660881014004574  120.000000
2.2399999999999998  0.000000  0.000000  0.000000  -37.85964099172645  5.799902448073917  14.23006397657435  68.8035280469493  14.262386002764647  -4.105230583291759  -25.582361332563217  48.85228234336512  29.256043633503864  7.878933997961671  120.000000
